HIERARCHY
ROOT Hips
{
  OFFSET 2.26061 22.2878 23.7974
  CHANNELS 6 Xposition Yposition Zposition Zrotation Xrotation Yrotation
  JOINT LeftUpLeg
  {
    OFFSET 8.64259 1.95398 -2.38835
    CHANNELS 3 Zrotation Xrotation Yrotation
    JOINT LeftLeg
    {
      OFFSET 43.7702 0 0
      CHANNELS 3 Zrotation Xrotation Yrotation
      JOINT LeftFoot
      {
        OFFSET 40.6238 0 0
        CHANNELS 3 Zrotation Xrotation Yrotation
        JOINT LeftToeBase
        {
          OFFSET 12.7242 0 0
          CHANNELS 3 Zrotation Xrotation Yrotation
          End Site
          {
            OFFSET 0 0 0
          }
        }
      }
    }
  }
  JOINT RightUpLeg
  {
    OFFSET -8.2249 1.95398 -2.59336
    CHANNELS 3 Zrotation Xrotation Yrotation
    JOINT RightLeg
    {
      OFFSET 43.5653 0 0
      CHANNELS 3 Zrotation Xrotation Yrotation
      JOINT RightFoot
      {
        OFFSET 40.6238 0 0
        CHANNELS 3 Zrotation Xrotation Yrotation
        JOINT RightToeBase
        {
          OFFSET 12.7242 0 0
          CHANNELS 3 Zrotation Xrotation Yrotation
          End Site
          {
            OFFSET 0 0 0
          }
        }
      }
    }
  }
  JOINT Spine
  {
    OFFSET 0.165834 0.87714 6.61349
    CHANNELS 3 Zrotation Xrotation Yrotation
    JOINT Spine1
    {
      OFFSET 7.38963 1.71661e-005 0
      CHANNELS 3 Zrotation Xrotation Yrotation
      JOINT Spine2
      {
        OFFSET 11.9445 1.14441e-005 0
        CHANNELS 3 Zrotation Xrotation Yrotation
        JOINT Spine3
        {
          OFFSET 14.7254 4.19617e-005 0
          CHANNELS 3 Zrotation Xrotation Yrotation
          JOINT Spine4
          {
            OFFSET 10.9679 0 0
            CHANNELS 3 Zrotation Xrotation Yrotation
            JOINT RightShoulder
            {
              OFFSET 2.46616 -1.6653 3.69651
              CHANNELS 3 Zrotation Xrotation Yrotation
              JOINT RightArm
              {
                OFFSET 13.0012 0 0
                CHANNELS 3 Zrotation Xrotation Yrotation
                JOINT RightForeArm
                {
                  OFFSET 28.7848 1.52588e-005 0
                  CHANNELS 3 Zrotation Xrotation Yrotation
                  JOINT RightHand
                  {
                    OFFSET 26.5688 1.52588e-005 0
                    CHANNELS 3 Zrotation Xrotation Yrotation
                    End Site
                    {
                      OFFSET 0 0 0
                    }
                  }
                }
              }
            }
            JOINT LeftShoulder
            {
              OFFSET 2.38034 -1.29275 -3.7523
              CHANNELS 3 Zrotation Xrotation Yrotation
              JOINT LeftArm
              {
                OFFSET 16.3182 6.10351e-005 0
                CHANNELS 3 Zrotation Xrotation Yrotation
                JOINT LeftForeArm
                {
                  OFFSET 27.0901 0 0
                  CHANNELS 3 Zrotation Xrotation Yrotation
                  JOINT LeftHand
                  {
                    OFFSET 24.5451 1.52588e-005 0
                    CHANNELS 3 Zrotation Xrotation Yrotation
                    End Site
                    {
                      OFFSET 0 0 0
                    }
                  }
                }
              }
            }
            JOINT Neck
            {
              OFFSET 5.0226 -0.0266342 0
              CHANNELS 3 Zrotation Xrotation Yrotation
              JOINT Head
              {
                OFFSET 6.69363 2.86102e-005 0
                CHANNELS 3 Zrotation Xrotation Yrotation
                End Site
                {
                  OFFSET 0 0 0
                }
              }
            }
          }
        }
      }
    }
  }
}
MOTION
Frames:	12
Frame Time:	0.0416667
-53.5079 97.4018 42.7019 -79.5396 -87.071 -78.8105 -171.411 6.15869 91.5373 -10.5359 8.34115 -0.489837 62.2924 1.76235 2.64159 27.0638 -1.27611 -0.674486 173.791 3.52198 90.253 -8.29513 -3.056 -1.66752 62.59 -2.08606 -1.15825 28.9357 0.193356 -2.94301 -0.00337293 6.87577 -90.0715 13.1112 -0.0410571 -0.138058 1.44019 -0.0470847 -0.136126 -21.0949 0.00234216 -0.150588 -1.08226 0.00232918 -0.150593 92.2075 -53.0905 -96.8575 22.7423 -7.2849 0.15145 -5.04177 -27.2055 -40.1127 -6.72756 -0.912588 5.00543 -106.362 -54.0646 56.7086 -16.8582 14.7956 3.55442 0.933584 11.0011 -29.3422 10.2288 0.76773 3.39156 5.41077 1.55044 2.78134 -4.21523 1.08588 0.0690468 
-53.4956 97.3513 42.7161 -78.367 -87.1617 -77.6594 -171.214 6.90461 91.6366 -11.6719 8.25044 -0.789445 62.0144 1.71955 3.46202 28.8331 0.382927 -3.48236 173.856 3.60079 90.2289 -8.49151 -3.36455 -1.80068 63.3661 -2.30872 -1.28003 27.6773 0.167362 -3.03534 -0.00573855 6.87485 -90.074 13.1246 -0.0469699 -0.142283 1.45367 -0.053189 -0.140088 -21.0814 -0.00203867 -0.148913 -1.06877 -0.00204182 -0.148919 92.2214 -53.0319 -96.848 22.6935 -7.20848 0.0229864 -4.24968 -27.5014 -39.3295 -7.04109 -0.91619 4.79824 -106.289 -54.0729 56.8107 -16.8887 14.8398 3.37729 1.06573 11.3366 -29.2884 9.75407 0.777679 3.78901 6.69073 1.92686 2.70245 -4.93595 1.43618 0.233455 
-53.5159 97.3664 42.7116 -80.3888 -87.2929 -79.7004 -171.275 6.67309 91.6059 -11.4352 8.44726 -0.71382 61.8684 1.72856 3.5834 28.7078 0.277372 -3.36259 173.744 3.42387 90.2104 -8.31664 -2.61485 -1.66451 63.9838 -2.53232 -1.40624 26.1358 0.0240336 -1.75578 -0.0304193 6.88101 -90.0653 13.1118 -0.0917657 -0.119385 1.44086 -0.0969342 -0.115241 -21.0943 -0.051648 -0.141443 -1.08162 -0.0516472 -0.141451 92.0003 -53.0188 -97.1783 22.6421 -7.34264 0.137548 -3.96921 -27.1435 -39.3481 -7.00491 -0.883089 4.41733 -106.12 -54.0846 57.0448 -16.9294 14.8676 3.41522 1.03117 11.2995 -29.3715 10.3661 0.839431 3.94594 6.55947 1.97731 2.54228 -4.89173 1.51529 0.402693 
-53.5046 97.3678 42.7529 -79.2906 -87.2694 -78.5403 -171.237 6.7556 91.666 -11.4892 8.35437 -0.733306 61.8369 1.69887 3.6425 28.834 0.399573 -3.65892 173.767 3.53626 90.2517 -8.49578 -2.90244 -1.64614 62.8749 -2.12888 -1.1766 28.5566 0.165364 -2.74232 -0.0277491 6.88125 -90.0712 13.1117 -0.0892924 -0.131332 1.44079 -0.0949809 -0.127292 -21.0943 -0.0456964 -0.152098 -1.08167 -0.0456952 -0.152107 92.1212 -53.0733 -96.9888 22.4178 -7.39334 -0.156396 -3.98682 -27.0852 -39.3678 -6.95717 -0.88603 4.49518 -106.078 -54.1387 57.1244 -16.7689 14.8963 3.2865 0.91881 11.1467 -29.3603 10.5094 0.848371 3.93273 6.75358 1.97833 2.43961 -5.05209 1.52688 0.604994 
-53.4978 97.3838 42.8026 -78.8877 -87.3071 -78.1166 -171.251 6.74372 91.6643 -11.5029 8.53644 -0.713411 61.9209 1.73451 3.63024 28.479 0.104077 -3.33238 173.769 3.47967 90.2713 -8.46787 -2.82809 -1.63551 62.5825 -2.02773 -1.11862 28.9806 0.190302 -2.87684 -0.0371988 6.87601 -90.079 13.1106 -0.111843 -0.144409 1.43961 -0.118086 -0.139354 -21.0955 -0.0632674 -0.171342 -1.08284 -0.0632753 -0.17136 92.0444 -53.0448 -97.1079 22.4095 -6.95225 -0.242421 -4.51198 -27.7572 -39.288 -6.57527 -0.923945 5.28063 -106.093 -54.2196 57.1383 -16.6644 14.8768 3.23612 0.888902 11.0371 -29.3544 10.1913 0.817496 3.86456 6.98497 2.0428 2.54832 -5.36215 1.56508 0.571888 
-53.5386 97.3862 42.7967 -80.1114 -87.3245 -79.4089 -171.302 6.41749 91.6092 -11.0897 8.02554 -0.639681 62.2026 2.04538 2.90283 28.1809 -0.172574 -2.81551 173.721 3.67726 90.2151 -8.94247 -2.74065 -1.62031 62.6324 -1.96912 -1.07662 29.329 0.19805 -2.88237 -0.038437 6.87485 -90.0756 13.1038 -0.112622 -0.143918 1.43287 -0.11856 -0.13931 -21.1022 -0.0660883 -0.164996 -1.08959 -0.0660878 -0.165006 91.9829 -52.8467 -97.2366 22.6258 -6.99845 -0.0569094 -4.57341 -27.5747 -39.5321 -6.53181 -0.912116 5.16587 -106.182 -54.2856 57.0437 -16.6583 14.8003 3.28152 0.842261 10.8318 -29.3631 10.3034 0.789651 3.54198 6.8351 2.08708 2.45394 -5.16287 1.62794 0.74539 
-53.5756 97.428 42.8265 -79.5563 -87.4132 -78.9245 -171.371 6.45906 91.5392 -11.0884 8.3223 -0.605641 61.6808 1.7106 3.29276 28.895 0.397258 -3.15739 173.739 3.7304 90.1902 -9.06852 -2.66606 -1.67581 62.59 -1.925 -1.04643 29.3548 0.204368 -2.95607 -0.035697 6.87539 -90.0751 13.0988 -0.106983 -0.136883 1.42781 -0.112912 -0.132014 -21.1073 -0.0607856 -0.163067 -1.09465 -0.0607808 -0.163068 92.0648 -52.7602 -97.13 22.7802 -6.87516 0.0293993 -4.73454 -28.1404 -39.5744 -6.98824 -0.981062 5.68091 -106.372 -54.3618 56.8188 -16.5386 14.8564 3.29995 0.887301 11.0122 -29.3366 10.3174 0.792382 3.55775 7.39961 2.91805 2.18149 -5.74753 2.47569 0.828544 
-53.5646 97.3934 42.8333 -81.5065 -87.1844 -80.8011 -171.252 6.49864 91.6526 -11.2983 8.33372 -0.697245 61.726 1.64338 3.58018 28.875 0.404166 -3.38627 173.777 3.59141 90.2577 -8.90728 -2.84419 -1.67588 62.5644 -1.96063 -1.07235 29.265 0.19694 -2.86971 -0.0126212 6.8761 -90.0934 13.1016 -0.069977 -0.178537 1.43067 -0.077766 -0.17529 -21.1044 -0.0130814 -0.191316 -1.09174 -0.0130894 -0.191321 92.0889 -52.8618 -97.0758 22.5283 -7.00146 -0.0406983 -4.32653 -28.0819 -39.4319 -7.29563 -0.990566 5.55785 -106.344 -54.3887 56.8675 -16.6274 14.9781 3.44761 0.870171 11.0597 -29.3924 10.2197 0.797136 3.66254 6.71895 5.83827 0.0155637 -4.47712 5.7403 3.08098 
-53.56 97.3634 42.9007 -80.0712 -87.0657 -79.344 -171.364 6.49781 91.5942 -11.3396 7.75761 -0.548679 62.2713 2.03064 3.0845 28.3042 -0.0604488 -3.00048 173.78 3.52519 90.2633 -8.65132 -2.98115 -1.66298 62.7393 -2.06922 -1.14209 29.0407 0.185789 -2.78009 0.00458458 6.87614 -90.0905 13.1215 -0.034443 -0.176867 1.45054 -0.0421889 -0.175194 -21.0845 0.0203055 -0.179039 -1.07187 0.0203072 -0.179047 92.2702 -53.0041 -96.7797 22.5559 -6.98298 -0.114673 -4.63417 -28.3474 -39.5745 -6.90257 -0.944731 5.21493 -105.99 -54.0944 57.2257 -16.896 14.9186 3.36236 1.10713 11.3741 -29.5157 10.1978 0.837203 4.03849 6.26436 9.79888 -3.65641 -4.51927 10.2356 6.8414 
-53.5688 97.3885 42.9388 -78.669 -87.218 -78.0145 -171.393 6.54913 91.5437 -11.2817 8.00421 -0.576281 61.7999 1.6875 3.43667 28.8898 0.434403 -3.58931 173.727 3.55286 90.1971 -8.72481 -2.90183 -1.64495 62.7791 -2.06481 -1.1369 29.0808 0.197898 -2.95941 0.0104295 6.87196 -90.0973 13.1299 -0.0261013 -0.191495 1.45894 -0.0345022 -0.190166 -21.0761 0.0326563 -0.190488 -1.06345 0.0326647 -0.190479 92.2291 -52.7845 -96.8811 22.6706 -7.07451 -0.0518469 -4.39521 -28.2878 -39.3997 -7.34644 -0.952395 4.95206 -106.014 -54.1184 57.2029 -16.7129 14.9141 3.24085 1.2147 11.444 -29.6406 9.77909 0.810224 4.07723 5.97078 13.9508 -6.57967 -5.46028 14.6997 10.0947 
-53.5749 97.3879 42.9601 -77.6731 -87.2989 -77.014 -171.396 6.51033 91.5382 -11.2127 8.17947 -0.573136 61.9896 1.83684 3.2993 28.5762 0.160563 -3.17011 173.686 3.58068 90.183 -8.74173 -2.87907 -1.59773 62.7389 -2.04348 -1.12395 29.2305 0.207967 -3.06585 0.0221697 6.86384 -90.1103 13.1461 -0.00904524 -0.219518 1.47519 -0.0186993 -0.21891 -21.0598 0.0573412 -0.212087 -1.04719 0.0573448 -0.212088 92.15 -52.7817 -96.9992 22.5923 -7.06383 -0.0739205 -4.27103 -28.1875 -39.2971 -7.34879 -0.958022 4.96693 -105.599 -53.9577 57.7 -16.7865 15.1796 2.91476 1.07863 11.4142 -29.7058 9.93324 0.816998 4.03745 5.23707 17.8469 -9.03316 -6.492 18.7416 13.1173 
-53.5515 97.3822 42.9895 -75.6532 -87.4428 -75.055 -171.349 6.59299 91.5096 -11.2275 8.3806 -0.679226 61.8487 1.73954 3.44026 28.7385 0.287876 -3.235 173.653 3.71156 90.1134 -8.95001 -2.73151 -1.60163 62.8303 -2.03871 -1.11864 29.1387 0.193418 -2.86398 0.0385818 6.86913 -90.1182 13.1355 0.0197143 -0.238959 1.46458 0.00917312 -0.239601 -21.0704 0.0906204 -0.221986 -1.05777 0.0906104 -0.221994 92.3353 -52.925 -96.6969 22.29 -7.04224 -0.269318 -4.30028 -27.9665 -39.5157 -6.92039 -0.958533 5.44209 -105.512 -53.8839 57.7882 -16.7273 15.1675 2.64085 1.04356 11.4484 -29.5478 9.86596 0.770352 3.64734 4.63384 20.8463 -10.5386 -7.52521 21.7105 15.4313 
